<svg viewBox="0 0 800 280" xmlns="http://www.w3.org/2000/svg">
  <!-- List Mode -->
  <rect x="20" y="20" width="360" height="240" rx="8" fill="#1a202c" stroke="#4a5568" stroke-width="2"/>
  <rect x="20" y="20" width="360" height="30" rx="8" fill="#2d3748"/>
  <rect x="20" y="42" width="360" height="8" fill="#2d3748"/>
  <text x="200" y="42" text-anchor="middle" fill="#90cdf4" font-family="Arial" font-weight="bold" font-size="12">LIST MODE</text>

  <!-- Header row -->
  <rect x="30" y="55" width="340" height="22" fill="#2d3748"/>
  <text x="40" y="70" fill="#a0aec0" font-family="monospace" font-size="10">Icon</text>
  <text x="80" y="70" fill="#a0aec0" font-family="monospace" font-size="10">Name</text>
  <text x="200" y="70" fill="#a0aec0" font-family="monospace" font-size="10">Size</text>
  <text x="260" y="70" fill="#a0aec0" font-family="monospace" font-size="10">Type</text>
  <text x="320" y="70" fill="#a0aec0" font-family="monospace" font-size="10">Date</text>

  <!-- List items -->
  <rect x="30" y="82" width="340" height="22" fill="#2d3748"/>
  <rect x="35" y="86" width="14" height="14" rx="2" fill="#4299e1"/>
  <text x="80" y="97" fill="#90cdf4" font-family="monospace" font-size="10">Documents</text>
  <text x="200" y="97" fill="#718096" font-family="monospace" font-size="10">-</text>
  <text x="260" y="97" fill="#718096" font-family="monospace" font-size="10">Dir</text>
  <text x="320" y="97" fill="#718096" font-family="monospace" font-size="10">Jan 15</text>

  <rect x="30" y="106" width="340" height="22" fill="transparent"/>
  <rect x="35" y="110" width="14" height="14" rx="2" fill="#4299e1"/>
  <text x="80" y="121" fill="#90cdf4" font-family="monospace" font-size="10">Downloads</text>
  <text x="200" y="121" fill="#718096" font-family="monospace" font-size="10">-</text>
  <text x="260" y="121" fill="#718096" font-family="monospace" font-size="10">Dir</text>
  <text x="320" y="121" fill="#718096" font-family="monospace" font-size="10">Jan 14</text>

  <!-- Selected item -->
  <rect x="30" y="130" width="340" height="22" fill="#3182ce"/>
  <rect x="35" y="134" width="14" height="14" rx="2" fill="#a0aec0"/>
  <text x="80" y="145" fill="#fff" font-family="monospace" font-size="10">report.pdf</text>
  <text x="200" y="145" fill="#e2e8f0" font-family="monospace" font-size="10">2.4 MB</text>
  <text x="260" y="145" fill="#e2e8f0" font-family="monospace" font-size="10">PDF</text>
  <text x="320" y="145" fill="#e2e8f0" font-family="monospace" font-size="10">Jan 12</text>

  <rect x="30" y="154" width="340" height="22" fill="transparent"/>
  <rect x="35" y="158" width="14" height="14" rx="2" fill="#a0aec0"/>
  <text x="80" y="169" fill="#e2e8f0" font-family="monospace" font-size="10">notes.txt</text>
  <text x="200" y="169" fill="#718096" font-family="monospace" font-size="10">128 B</text>
  <text x="260" y="169" fill="#718096" font-family="monospace" font-size="10">Text</text>
  <text x="320" y="169" fill="#718096" font-family="monospace" font-size="10">Jan 10</text>

  <!-- Icon Mode -->
  <rect x="420" y="20" width="360" height="240" rx="8" fill="#1a202c" stroke="#4a5568" stroke-width="2"/>
  <rect x="420" y="20" width="360" height="30" rx="8" fill="#2d3748"/>
  <rect x="420" y="42" width="360" height="8" fill="#2d3748"/>
  <text x="600" y="42" text-anchor="middle" fill="#90cdf4" font-family="Arial" font-weight="bold" font-size="12">ICON MODE</text>

  <!-- Icons row 1 -->
  <rect x="440" y="60" width="70" height="90" rx="4" fill="transparent"/>
  <rect x="450" y="65" width="50" height="50" rx="4" fill="#4299e1"/>
  <path d="M460 80 L475 75 L490 80 L490 105 L460 105 Z" fill="#2b6cb0"/>
  <text x="475" y="145" text-anchor="middle" fill="#e2e8f0" font-family="Arial" font-size="9">Documents</text>

  <rect x="520" y="60" width="70" height="90" rx="4" fill="transparent"/>
  <rect x="530" y="65" width="50" height="50" rx="4" fill="#4299e1"/>
  <path d="M540 80 L555 75 L570 80 L570 105 L540 105 Z" fill="#2b6cb0"/>
  <text x="555" y="145" text-anchor="middle" fill="#e2e8f0" font-family="Arial" font-size="9">Downloads</text>

  <!-- Selected icon -->
  <rect x="600" y="60" width="70" height="90" rx="4" fill="#3182ce"/>
  <rect x="610" y="65" width="50" height="50" rx="4" fill="#a0aec0"/>
  <text x="635" y="95" text-anchor="middle" fill="#4a5568" font-family="Arial" font-size="10">PDF</text>
  <text x="635" y="145" text-anchor="middle" fill="#fff" font-family="Arial" font-size="9">report.pdf</text>

  <rect x="680" y="60" width="70" height="90" rx="4" fill="transparent"/>
  <rect x="690" y="65" width="50" height="50" rx="4" fill="#68d391"/>
  <text x="715" y="95" text-anchor="middle" fill="#276749" font-family="Arial" font-size="8">thumb</text>
  <text x="715" y="145" text-anchor="middle" fill="#e2e8f0" font-family="Arial" font-size="9">photo.jpg</text>

  <!-- Icons row 2 -->
  <rect x="440" y="155" width="70" height="90" rx="4" fill="transparent"/>
  <rect x="450" y="160" width="50" height="50" rx="4" fill="#a0aec0"/>
  <text x="475" y="190" text-anchor="middle" fill="#4a5568" font-family="Arial" font-size="10">TXT</text>
  <text x="475" y="240" text-anchor="middle" fill="#e2e8f0" font-family="Arial" font-size="9">notes.txt</text>

  <rect x="520" y="155" width="70" height="90" rx="4" fill="transparent"/>
  <rect x="530" y="160" width="50" height="50" rx="4" fill="#a0aec0"/>
  <text x="555" y="190" text-anchor="middle" fill="#4a5568" font-family="Arial" font-size="10">CSV</text>
  <text x="555" y="240" text-anchor="middle" fill="#e2e8f0" font-family="Arial" font-size="9">data.csv</text>
</svg>
