# Blender 4.1.1
# www.blender.org
mtllib envtest2.mtl
o Grid
v -25.000000 5.510911 25.000000
v -20.000000 5.510911 25.000000
v -15.000001 5.510911 25.000000
v -9.999999 5.510911 25.000000
v -5.000000 5.510911 25.000000
v 0.000000 5.510911 25.000000
v 5.000001 5.510911 25.000000
v 9.999999 5.510911 25.000000
v 15.000001 5.510911 25.000000
v 20.000002 5.510911 25.000000
v 25.000000 5.510911 25.000000
v -25.000000 5.510911 20.000000
v -20.000000 0.000000 20.000000
v -15.000001 0.000000 20.000000
v -9.999999 0.000000 20.000000
v -5.000000 0.000000 20.000000
v 0.000000 0.000000 20.000000
v 5.000001 0.000000 20.000000
v 9.999999 0.000000 20.000000
v 15.000001 0.000000 20.000000
v 20.000002 0.000000 20.000000
v 25.000000 5.510911 20.000000
v -25.000000 5.510911 15.000001
v -20.000000 0.000000 15.000001
v -15.000001 0.000000 15.000001
v -9.999999 0.000000 15.000001
v -5.000000 0.000000 15.000001
v 0.000000 0.000000 15.000001
v 5.000001 0.000000 15.000001
v 9.999999 0.000000 15.000001
v 15.000001 0.000000 15.000001
v 20.000002 0.000000 15.000001
v 25.000000 5.510911 15.000001
v -25.000000 5.510911 9.999999
v -20.000000 0.000000 9.999999
v -15.000001 0.000000 9.999999
v -9.999999 0.913936 9.999999
v -5.000000 0.000000 9.999999
v 0.000000 0.000000 9.999999
v 5.000001 0.000000 9.999999
v 9.999999 1.404876 9.999999
v 15.000001 0.000000 9.999999
v 20.000002 0.000000 9.999999
v 25.000000 5.510911 9.999999
v -25.000000 5.510911 5.000000
v -20.000000 0.000000 5.000000
v -15.000001 0.000000 5.000000
v -9.999999 0.000000 5.000000
v -5.000000 0.806085 5.000000
v 0.000000 0.000000 5.000000
v 5.000001 0.649139 5.000000
v 9.999999 0.000000 5.000000
v 15.000001 0.000000 5.000000
v 20.000002 0.000000 5.000000
v 25.000000 5.510911 5.000000
v -25.000000 5.510911 0.000000
v -20.000000 0.000000 0.000000
v -15.000001 0.000000 0.000000
v -9.999999 0.000000 0.000000
v -5.000000 0.000000 0.000000
v 0.000000 1.612682 0.000000
v 5.000001 0.000000 0.000000
v 9.999999 0.000000 0.000000
v 15.000001 0.000000 0.000000
v 20.000002 0.000000 0.000000
v 25.000000 5.510911 0.000000
v -25.000000 5.510911 -5.000001
v -20.000000 0.000000 -5.000001
v -15.000001 0.000000 -5.000001
v -9.999999 0.000000 -5.000001
v -5.000000 0.574443 -5.000001
v 0.000000 0.000000 -5.000001
v 5.000001 0.695133 -5.000001
v 9.999999 0.000000 -5.000001
v 15.000001 0.000000 -5.000001
v 20.000002 0.000000 -5.000001
v 25.000000 5.510911 -5.000001
v -25.000000 5.510911 -9.999999
v -20.000000 0.000000 -9.999999
v -15.000001 0.000000 -9.999999
v -9.999999 1.449145 -9.999999
v -5.000000 0.000000 -9.999999
v 0.000000 0.000000 -9.999999
v 5.000001 0.000000 -9.999999
v 9.999999 1.506056 -9.999999
v 15.000001 0.000000 -9.999999
v 20.000002 0.000000 -9.999999
v 25.000000 5.510911 -9.999999
v -25.000000 5.510911 -15.000001
v -20.000000 0.000000 -15.000001
v -15.000001 0.000000 -15.000001
v -9.999999 0.000000 -15.000001
v -5.000000 0.000000 -15.000001
v 0.000000 0.000000 -15.000001
v 5.000001 0.000000 -15.000001
v 9.999999 0.000000 -15.000001
v 15.000001 0.000000 -15.000001
v 20.000002 0.000000 -15.000001
v 25.000000 5.510911 -15.000001
v -25.000000 5.510911 -20.000002
v -20.000000 0.000000 -20.000002
v -15.000001 0.000000 -20.000002
v -9.999999 0.000000 -20.000002
v -5.000000 0.000000 -20.000002
v 0.000000 0.000000 -20.000002
v 5.000001 0.000000 -20.000002
v 9.999999 0.000000 -20.000002
v 15.000001 0.000000 -20.000002
v 20.000002 0.000000 -20.000002
v 25.000000 5.510911 -20.000002
v -25.000000 5.510911 -25.000000
v -20.000000 5.510911 -25.000000
v -15.000001 5.510911 -25.000000
v -9.999999 5.510911 -25.000000
v -5.000000 5.510911 -25.000000
v 0.000000 5.510911 -25.000000
v 5.000001 5.510911 -25.000000
v 9.999999 5.510911 -25.000000
v 15.000001 5.510911 -25.000000
v 20.000002 5.510911 -25.000000
v 25.000000 5.510911 -25.000000
vn 0.4347 0.7887 -0.4347
vn -0.0000 0.6719 -0.7406
vn -0.4347 0.7887 -0.4347
vn 0.7406 0.6719 -0.0000
vn -0.0000 1.0000 -0.0000
vn -0.7406 0.6719 -0.0000
vn -0.0906 0.9918 0.0906
vn 0.0906 0.9918 0.0906
vn -0.1378 0.9808 0.1378
vn 0.1378 0.9808 0.1378
vn -0.0906 0.9918 -0.0906
vn 0.0108 0.9999 -0.0108
vn 0.0801 0.9936 0.0801
vn -0.0646 0.9958 0.0646
vn -0.0751 0.9943 -0.0751
vn 0.1378 0.9808 -0.1378
vn -0.0801 0.9936 -0.0801
vn -0.0801 0.9936 0.0801
vn 0.0955 0.9908 0.0955
vn 0.0646 0.9958 -0.0646
vn -0.0573 0.9967 0.0573
vn -0.1027 0.9894 -0.1027
vn 0.0910 0.9917 -0.0910
vn 0.0692 0.9952 0.0692
vn -0.1420 0.9796 0.1420
vn 0.0868 0.9924 0.0868
vn 0.0573 0.9967 -0.0573
vn -0.0692 0.9952 -0.0692
vn -0.0806 0.9935 0.0806
vn 0.1473 0.9781 0.1473
vn -0.1420 0.9796 -0.1420
vn 0.1420 0.9796 -0.1420
vn -0.1473 0.9781 -0.1473
vn 0.1473 0.9781 -0.1473
vn 0.4347 0.7887 0.4347
vn -0.0000 0.6719 0.7406
vn -0.4347 0.7887 0.4347
vt 0.000000 0.000000
vt 0.100000 0.000000
vt 0.100000 0.100000
vt 0.000000 0.100000
vt 0.200000 0.000000
vt 0.200000 0.100000
vt 0.300000 0.000000
vt 0.300000 0.100000
vt 0.200000 0.100000
vt 0.400000 0.000000
vt 0.400000 0.100000
vt 0.500000 0.000000
vt 0.500000 0.100000
vt 0.600000 0.000000
vt 0.600000 0.100000
vt 0.700000 0.000000
vt 0.700000 0.100000
vt 0.800000 0.000000
vt 0.800000 0.100000
vt 0.900000 0.000000
vt 0.900000 0.100000
vt 1.000000 0.000000
vt 1.000000 0.100000
vt 0.100000 0.200000
vt 0.000000 0.200000
vt 0.200000 0.200000
vt 0.300000 0.200000
vt 0.200000 0.200000
vt 0.400000 0.200000
vt 0.500000 0.200000
vt 0.600000 0.200000
vt 0.700000 0.200000
vt 0.800000 0.200000
vt 0.900000 0.200000
vt 1.000000 0.200000
vt 0.000000 0.200000
vt 0.100000 0.200000
vt 0.100000 0.300000
vt 0.000000 0.300000
vt 0.200000 0.200000
vt 0.200000 0.300000
vt 0.300000 0.200000
vt 0.300000 0.300000
vt 0.200000 0.300000
vt 0.400000 0.200000
vt 0.400000 0.300000
vt 0.500000 0.200000
vt 0.500000 0.300000
vt 0.600000 0.200000
vt 0.600000 0.300000
vt 0.700000 0.200000
vt 0.700000 0.300000
vt 0.800000 0.200000
vt 0.800000 0.300000
vt 0.900000 0.200000
vt 0.900000 0.300000
vt 1.000000 0.200000
vt 1.000000 0.300000
vt 0.100000 0.400000
vt 0.000000 0.400000
vt 0.200000 0.400000
vt 0.300000 0.400000
vt 0.200000 0.400000
vt 0.400000 0.400000
vt 0.500000 0.400000
vt 0.600000 0.400000
vt 0.700000 0.400000
vt 0.800000 0.400000
vt 0.900000 0.400000
vt 1.000000 0.400000
vt 0.100000 0.500000
vt 0.000000 0.500000
vt 0.200000 0.500000
vt 0.300000 0.500000
vt 0.200000 0.500000
vt 0.400000 0.500000
vt 0.500000 0.500000
vt 0.600000 0.500000
vt 0.700000 0.500000
vt 0.800000 0.500000
vt 0.900000 0.500000
vt 1.000000 0.500000
vt 0.100000 0.600000
vt 0.000000 0.600000
vt 0.200000 0.600000
vt 0.300000 0.600000
vt 0.200000 0.600000
vt 0.400000 0.600000
vt 0.500000 0.600000
vt 0.600000 0.600000
vt 0.700000 0.600000
vt 0.800000 0.600000
vt 0.900000 0.600000
vt 1.000000 0.600000
vt 0.100000 0.700000
vt 0.000000 0.700000
vt 0.200000 0.700000
vt 0.300000 0.700000
vt 0.200000 0.700000
vt 0.400000 0.700000
vt 0.500000 0.700000
vt 0.600000 0.700000
vt 0.700000 0.700000
vt 0.800000 0.700000
vt 0.900000 0.700000
vt 1.000000 0.700000
vt 0.100000 0.800000
vt 0.000000 0.800000
vt 0.200000 0.800000
vt 0.300000 0.800000
vt 0.200000 0.800000
vt 0.400000 0.800000
vt 0.500000 0.800000
vt 0.600000 0.800000
vt 0.700000 0.800000
vt 0.800000 0.800000
vt 0.900000 0.800000
vt 1.000000 0.800000
vt 0.100000 0.900000
vt 0.000000 0.900000
vt 0.200000 0.900000
vt 0.300000 0.900000
vt 0.200000 0.900000
vt 0.400000 0.900000
vt 0.500000 0.900000
vt 0.600000 0.900000
vt 0.700000 0.900000
vt 0.800000 0.900000
vt 0.900000 0.900000
vt 1.000000 0.900000
vt 0.100000 1.000000
vt 0.000000 1.000000
vt 0.200000 1.000000
vt 0.300000 1.000000
vt 0.200000 1.000000
vt 0.400000 1.000000
vt 0.500000 1.000000
vt 0.600000 1.000000
vt 0.700000 1.000000
vt 0.800000 1.000000
vt 0.900000 1.000000
vt 1.000000 1.000000
s 0
f 1/1/1 2/2/1 13/3/1 12/4/1
f 2/2/2 3/5/2 14/6/2 13/3/2
f 3/5/2 4/7/2 15/8/2 14/9/2
f 4/7/2 5/10/2 16/11/2 15/8/2
f 5/10/2 6/12/2 17/13/2 16/11/2
f 6/12/2 7/14/2 18/15/2 17/13/2
f 7/14/2 8/16/2 19/17/2 18/15/2
f 8/16/2 9/18/2 20/19/2 19/17/2
f 9/18/2 10/20/2 21/21/2 20/19/2
f 10/20/3 11/22/3 22/23/3 21/21/3
f 12/4/4 13/3/4 24/24/4 23/25/4
f 13/3/5 14/6/5 25/26/5 24/24/5
f 14/6/5 15/8/5 26/27/5 25/28/5
f 15/8/5 16/11/5 27/29/5 26/27/5
f 16/11/5 17/13/5 28/30/5 27/29/5
f 17/13/5 18/15/5 29/31/5 28/30/5
f 18/15/5 19/17/5 30/32/5 29/31/5
f 19/17/5 20/19/5 31/33/5 30/32/5
f 20/19/5 21/21/5 32/34/5 31/33/5
f 21/21/6 22/23/6 33/35/6 32/34/6
f 23/36/4 24/37/4 35/38/4 34/39/4
f 24/37/5 25/40/5 36/41/5 35/38/5
f 25/40/7 26/42/7 37/43/7 36/44/7
f 26/42/8 27/45/8 38/46/8 37/43/8
f 27/45/5 28/47/5 39/48/5 38/46/5
f 28/47/5 29/49/5 40/50/5 39/48/5
f 29/49/9 30/51/9 41/52/9 40/50/9
f 30/51/10 31/53/10 42/54/10 41/52/10
f 31/53/5 32/55/5 43/56/5 42/54/5
f 32/55/6 33/57/6 44/58/6 43/56/6
f 34/39/4 35/38/4 46/59/4 45/60/4
f 35/38/5 36/41/5 47/61/5 46/59/5
f 36/41/11 37/43/11 48/62/11 47/63/11
f 37/43/12 38/46/12 49/64/12 48/62/12
f 38/46/13 39/48/13 50/65/13 49/64/13
f 39/48/14 40/50/14 51/66/14 50/65/14
f 40/50/15 41/52/15 52/67/15 51/66/15
f 41/52/16 42/54/16 53/68/16 52/67/16
f 42/54/5 43/56/5 54/69/5 53/68/5
f 43/56/6 44/58/6 55/70/6 54/69/6
f 45/60/4 46/59/4 57/71/4 56/72/4
f 46/59/5 47/61/5 58/73/5 57/71/5
f 47/61/5 48/62/5 59/74/5 58/75/5
f 48/62/17 49/64/17 60/76/17 59/74/17
f 49/64/18 50/65/18 61/77/18 60/76/18
f 50/65/19 51/66/19 62/78/19 61/77/19
f 51/66/20 52/67/20 63/79/20 62/78/20
f 52/67/5 53/68/5 64/80/5 63/79/5
f 53/68/5 54/69/5 65/81/5 64/80/5
f 54/69/6 55/70/6 66/82/6 65/81/6
f 56/72/4 57/71/4 68/83/4 67/84/4
f 57/71/5 58/73/5 69/85/5 68/83/5
f 58/73/5 59/74/5 70/86/5 69/87/5
f 59/74/21 60/76/21 71/88/21 70/86/21
f 60/76/22 61/77/22 72/89/22 71/88/22
f 61/77/23 62/78/23 73/90/23 72/89/23
f 62/78/24 63/79/24 74/91/24 73/90/24
f 63/79/5 64/80/5 75/92/5 74/91/5
f 64/80/5 65/81/5 76/93/5 75/92/5
f 65/81/6 66/82/6 77/94/6 76/93/6
f 67/84/4 68/83/4 79/95/4 78/96/4
f 68/83/5 69/85/5 80/97/5 79/95/5
f 69/85/25 70/86/25 81/98/25 80/99/25
f 70/86/26 71/88/26 82/100/26 81/98/26
f 71/88/27 72/89/27 83/101/27 82/100/27
f 72/89/28 73/90/28 84/102/28 83/101/28
f 73/90/29 74/91/29 85/103/29 84/102/29
f 74/91/30 75/92/30 86/104/30 85/103/30
f 75/92/5 76/93/5 87/105/5 86/104/5
f 76/93/6 77/94/6 88/106/6 87/105/6
f 78/96/4 79/95/4 90/107/4 89/108/4
f 79/95/5 80/97/5 91/109/5 90/107/5
f 80/97/31 81/98/31 92/110/31 91/111/31
f 81/98/32 82/100/32 93/112/32 92/110/32
f 82/100/5 83/101/5 94/113/5 93/112/5
f 83/101/5 84/102/5 95/114/5 94/113/5
f 84/102/33 85/103/33 96/115/33 95/114/33
f 85/103/34 86/104/34 97/116/34 96/115/34
f 86/104/5 87/105/5 98/117/5 97/116/5
f 87/105/6 88/106/6 99/118/6 98/117/6
f 89/108/4 90/107/4 101/119/4 100/120/4
f 90/107/5 91/109/5 102/121/5 101/119/5
f 91/109/5 92/110/5 103/122/5 102/123/5
f 92/110/5 93/112/5 104/124/5 103/122/5
f 93/112/5 94/113/5 105/125/5 104/124/5
f 94/113/5 95/114/5 106/126/5 105/125/5
f 95/114/5 96/115/5 107/127/5 106/126/5
f 96/115/5 97/116/5 108/128/5 107/127/5
f 97/116/5 98/117/5 109/129/5 108/128/5
f 98/117/6 99/118/6 110/130/6 109/129/6
f 100/120/35 101/119/35 112/131/35 111/132/35
f 101/119/36 102/121/36 113/133/36 112/131/36
f 102/121/36 103/122/36 114/134/36 113/135/36
f 103/122/36 104/124/36 115/136/36 114/134/36
f 104/124/36 105/125/36 116/137/36 115/136/36
f 105/125/36 106/126/36 117/138/36 116/137/36
f 106/126/36 107/127/36 118/139/36 117/138/36
f 107/127/36 108/128/36 119/140/36 118/139/36
f 108/128/36 109/129/36 120/141/36 119/140/36
f 109/129/37 110/130/37 121/142/37 120/141/37
